<?xml version="1.0" encoding="iso-8859-1"?>
<!-- Uploaded to: SVG Repo, www.svgrepo.com, Generator: SVG Repo Mixer Tools -->
<svg fill="#000000" height="800px" width="800px" version="1.1" id="Layer_1" xmlns="http://www.w3.org/2000/svg" xmlns:xlink="http://www.w3.org/1999/xlink" 
	 viewBox="0 0 512 512" xml:space="preserve">
<g>
	<g>
		<g>
			<path d="M463.663,11.065H48.337C21.683,11.065,0,32.748,0,59.402v294.097c0,26.654,21.683,48.337,48.337,48.337H185.33
				c-1.233,26.665-6.005,52.513-14.227,77.077h-35.67c-6.081,0-11.011,4.93-11.011,11.011c0,6.081,4.93,11.011,11.011,11.011
				h241.135c6.081,0,11.011-4.93,11.011-11.011c0-6.081-4.93-11.011-11.011-11.011h-35.67
				c-8.222-24.565-12.994-50.414-14.227-77.077h75.826l31.315,31.315c2.15,2.15,4.968,3.225,7.786,3.225s5.636-1.075,7.786-3.225
				l35.036-35.036c0.519-0.519,0.97-1.077,1.364-1.664C501.338,388.414,512,372.183,512,353.499V59.402
				C512,32.748,490.317,11.065,463.663,11.065z M194.243,478.914c7.593-24.706,11.997-50.532,13.141-77.075h97.233
				c1.143,26.544,5.548,52.369,13.141,77.075H194.243z M48.337,379.815c-14.511,0-26.316-11.806-26.316-26.316v-2.279h329.858
				l28.595,28.595H48.337z M441.596,409.794l-124.09-124.091c3.559-2.832,6.997-5.884,10.288-9.175
				c3.277-3.277,6.334-6.712,9.183-10.282l124.085,124.083L441.596,409.794z M312.221,260.955
				c-38.637,38.639-101.504,38.639-140.142,0.001c-18.717-18.717-29.025-43.603-29.025-70.072s10.308-51.355,29.025-70.072
				s43.603-29.024,70.071-29.024s51.355,10.308,70.071,29.024c18.717,18.717,29.024,43.603,29.024,70.071
				C341.246,217.352,330.938,242.238,312.221,260.955z M489.979,353.499c0,9.375-4.932,17.611-12.332,22.271l-24.551-24.551h36.883
				V353.499z M489.979,329.198h-58.904l-81.76-81.76c9.116-17.222,13.955-36.516,13.955-56.556
				c0-32.352-12.599-62.767-35.474-85.643c-22.876-22.877-53.292-35.476-85.644-35.476s-62.767,12.598-85.643,35.474
				c-22.877,22.876-35.476,53.292-35.476,85.644c0,32.352,12.599,62.767,35.474,85.644c23.613,23.611,54.628,35.418,85.644,35.418
				c19.449,0,38.899-4.645,56.524-13.931l31.185,31.185H22.021V59.402c0-14.511,11.805-26.316,26.316-26.316h415.326
				c14.511,0,26.316,11.805,26.316,26.316V329.198z"/>
			<path d="M355.864,86.229c-4.749,3.798-5.521,10.727-1.722,15.476c20.378,25.481,31.148,56.319,31.148,89.179
				c0,6.081,4.93,11.011,11.011,11.011s11.011-4.93,11.011-11.011c0-37.912-12.439-73.506-35.972-102.933
				C367.543,83.202,360.614,82.43,355.864,86.229z"/>
			<path d="M340.64,58.261l-1.043-0.771c-4.903-3.597-11.792-2.541-15.392,2.363c-3.597,4.903-2.539,11.794,2.363,15.392
				l0.906,0.669c1.976,1.474,4.284,2.185,6.575,2.185c3.357,0,6.674-1.53,8.835-4.429C346.519,68.796,345.515,61.898,340.64,58.261z
				"/>
			<path d="M308.215,159.414c0-6.081-4.93-11.011-11.011-11.011c-6.081,0-11.011,4.93-11.011,11.011
				c0,5.036-3.228,9.322-7.719,10.928c-2.247-6.507-6.32-12.168-11.608-16.369l3.756-8.837c2.378-5.597-0.23-12.062-5.827-14.441
				c-5.595-2.379-12.061,0.23-14.439,5.827l-4.133,9.726c-0.523-0.023-1.047-0.04-1.576-0.04h-4.994
				c-0.624,0-1.245,0.016-1.862,0.048l-4.137-9.734c-2.378-5.596-8.845-8.204-14.44-5.827c-5.597,2.378-8.205,8.844-5.827,14.441
				l3.828,9.008c-5.183,4.183-9.173,9.78-11.391,16.198c-4.491-1.605-7.719-5.892-7.719-10.928c0-6.081-4.93-11.011-11.011-11.011
				s-11.011,4.93-11.011,11.011c0,16.55,12.018,30.337,27.782,33.116v9.903c-15.765,2.779-27.782,16.566-27.782,33.116
				c0,6.081,4.93,11.011,11.011,11.011s11.011-4.93,11.011-11.011c0-6.234,4.941-11.322,11.11-11.589
				c6.314,10.189,17.594,16.993,30.436,16.993h4.994c12.843,0,24.122-6.805,30.436-16.993c6.169,0.266,11.11,5.355,11.11,11.589
				c0,6.081,4.93,11.011,11.011,11.011c6.081,0,11.011-4.93,11.011-11.011c0-16.55-12.018-30.337-27.782-33.116v-9.903
				C296.197,189.749,308.215,175.963,308.215,159.414z M258.411,205.167c-0.001,7.589-6.175,13.763-13.763,13.763h-4.995
				c-7.59,0-13.763-6.174-13.763-13.763v-23.174c0-7.59,6.174-13.763,13.763-13.763h4.995c7.589,0,13.763,6.174,13.763,13.763
				V205.167z"/>
		</g>
	</g>
</g>
</svg>